<svg id="Komponente_69_1" data-name="Komponente 69 – 1" xmlns="http://www.w3.org/2000/svg" width="50" height="50" viewBox="0 0 50 50">
  <g id="Ellipse_18" data-name="Ellipse 18" fill="#fff" stroke="#707070" stroke-width="1">
    <circle cx="25" cy="25" r="25" stroke="none"/>
    <circle cx="25" cy="25" r="24.5" fill="none"/>
  </g>
  <path id="Icon_awesome-trophy" data-name="Icon awesome-trophy" d="M26.953,3.125H21.875V1.172A1.169,1.169,0,0,0,20.7,0H7.422A1.169,1.169,0,0,0,6.25,1.172V3.125H1.172A1.169,1.169,0,0,0,0,4.3V7.031a6.372,6.372,0,0,0,3.022,4.917,11.439,11.439,0,0,0,5.371,2.036,10.8,10.8,0,0,0,3.325,3.594v3.516H9.375c-1.724,0-3.125,1.011-3.125,2.734v.586A.588.588,0,0,0,6.836,25H21.289a.588.588,0,0,0,.586-.586v-.586c0-1.724-1.4-2.734-3.125-2.734H16.406V17.578a10.8,10.8,0,0,0,3.325-3.594A11.4,11.4,0,0,0,25.1,11.948a6.385,6.385,0,0,0,3.022-4.917V4.3A1.169,1.169,0,0,0,26.953,3.125ZM4.849,9.414A3.592,3.592,0,0,1,3.125,7.031V6.25H6.26a17.537,17.537,0,0,0,.625,4.209A7.869,7.869,0,0,1,4.849,9.414ZM25,7.031a3.752,3.752,0,0,1-1.724,2.383,7.9,7.9,0,0,1-2.041,1.045A17.537,17.537,0,0,0,21.86,6.25H25Z" transform="translate(10.938 12.5)"/>
</svg>